%TF.GenerationSoftware,KiCad,Pcbnew,7.0.2*%
%TF.CreationDate,2023-07-27T03:17:29-04:00*%
%TF.ProjectId,switchy,73776974-6368-4792-9e6b-696361645f70,1.0*%
%TF.SameCoordinates,Original*%
%TF.FileFunction,Drillmap*%
%TF.FilePolarity,Positive*%
%FSLAX45Y45*%
G04 Gerber Fmt 4.5, Leading zero omitted, Abs format (unit mm)*
G04 Created by KiCad (PCBNEW 7.0.2) date 2023-07-27 03:17:29*
%MOMM*%
%LPD*%
G01*
G04 APERTURE LIST*
%ADD10C,0.050000*%
%ADD11C,0.200000*%
%ADD12C,0.100000*%
%ADD13C,0.125000*%
G04 APERTURE END LIST*
D10*
X13850000Y-9050000D02*
X15000000Y-9050000D01*
X13850000Y-10675000D02*
X13850000Y-9050000D01*
X15875000Y-10675000D02*
X13850000Y-10675000D01*
X15875000Y-9050000D02*
X15875000Y-10675000D01*
X15000000Y-9050000D02*
X15875000Y-9050000D01*
D11*
D12*
X13950000Y-9144000D02*
X14050000Y-9244000D01*
X14050000Y-9144000D02*
X13950000Y-9244000D01*
X13950000Y-9906000D02*
X14050000Y-10006000D01*
X14050000Y-9906000D02*
X13950000Y-10006000D01*
X13950000Y-10225000D02*
X14050000Y-10325000D01*
X14050000Y-10225000D02*
X13950000Y-10325000D01*
X13950000Y-10479000D02*
X14050000Y-10579000D01*
X14050000Y-10479000D02*
X13950000Y-10579000D01*
X14300000Y-9150000D02*
X14400000Y-9250000D01*
X14400000Y-9150000D02*
X14300000Y-9250000D01*
X14554000Y-9150000D02*
X14654000Y-9250000D01*
X14654000Y-9150000D02*
X14554000Y-9250000D01*
X14808000Y-9150000D02*
X14908000Y-9250000D01*
X14908000Y-9150000D02*
X14808000Y-9250000D01*
X15062000Y-9150000D02*
X15162000Y-9250000D01*
X15162000Y-9150000D02*
X15062000Y-9250000D01*
X15316000Y-9150000D02*
X15416000Y-9250000D01*
X15416000Y-9150000D02*
X15316000Y-9250000D01*
X15570000Y-9150000D02*
X15670000Y-9250000D01*
X15670000Y-9150000D02*
X15570000Y-9250000D01*
D13*
X14582500Y-9530000D02*
G75*
G03*
X14582500Y-9530000I-62500J0D01*
G01*
D11*
X14457500Y-9592500D02*
X14582500Y-9592500D01*
X14582500Y-9592500D02*
G75*
G03*
X14582500Y-9467500I0J62500D01*
G01*
X14582500Y-9467500D02*
X14457500Y-9467500D01*
X14457500Y-9467500D02*
G75*
G03*
X14457500Y-9592500I0J-62500D01*
G01*
D13*
X14582500Y-10000000D02*
G75*
G03*
X14582500Y-10000000I-62500J0D01*
G01*
D11*
X14457500Y-10062500D02*
X14582500Y-10062500D01*
X14582500Y-10062500D02*
G75*
G03*
X14582500Y-9937500I0J62500D01*
G01*
X14582500Y-9937500D02*
X14457500Y-9937500D01*
X14457500Y-9937500D02*
G75*
G03*
X14457500Y-10062500I0J-62500D01*
G01*
D13*
X14582500Y-10470000D02*
G75*
G03*
X14582500Y-10470000I-62500J0D01*
G01*
D11*
X14457500Y-10532500D02*
X14582500Y-10532500D01*
X14582500Y-10532500D02*
G75*
G03*
X14582500Y-10407500I0J62500D01*
G01*
X14582500Y-10407500D02*
X14457500Y-10407500D01*
X14457500Y-10407500D02*
G75*
G03*
X14457500Y-10532500I0J-62500D01*
G01*
D13*
X15062500Y-9530000D02*
G75*
G03*
X15062500Y-9530000I-62500J0D01*
G01*
D11*
X14937500Y-9592500D02*
X15062500Y-9592500D01*
X15062500Y-9592500D02*
G75*
G03*
X15062500Y-9467500I0J62500D01*
G01*
X15062500Y-9467500D02*
X14937500Y-9467500D01*
X14937500Y-9467500D02*
G75*
G03*
X14937500Y-9592500I0J-62500D01*
G01*
D13*
X15062500Y-10000000D02*
G75*
G03*
X15062500Y-10000000I-62500J0D01*
G01*
D11*
X14937500Y-10062500D02*
X15062500Y-10062500D01*
X15062500Y-10062500D02*
G75*
G03*
X15062500Y-9937500I0J62500D01*
G01*
X15062500Y-9937500D02*
X14937500Y-9937500D01*
X14937500Y-9937500D02*
G75*
G03*
X14937500Y-10062500I0J-62500D01*
G01*
D13*
X15062500Y-10470000D02*
G75*
G03*
X15062500Y-10470000I-62500J0D01*
G01*
D11*
X14937500Y-10532500D02*
X15062500Y-10532500D01*
X15062500Y-10532500D02*
G75*
G03*
X15062500Y-10407500I0J62500D01*
G01*
X15062500Y-10407500D02*
X14937500Y-10407500D01*
X14937500Y-10407500D02*
G75*
G03*
X14937500Y-10532500I0J-62500D01*
G01*
D13*
X15542500Y-9530000D02*
G75*
G03*
X15542500Y-9530000I-62500J0D01*
G01*
D11*
X15417500Y-9592500D02*
X15542500Y-9592500D01*
X15542500Y-9592500D02*
G75*
G03*
X15542500Y-9467500I0J62500D01*
G01*
X15542500Y-9467500D02*
X15417500Y-9467500D01*
X15417500Y-9467500D02*
G75*
G03*
X15417500Y-9592500I0J-62500D01*
G01*
D13*
X15542500Y-10000000D02*
G75*
G03*
X15542500Y-10000000I-62500J0D01*
G01*
D11*
X15417500Y-10062500D02*
X15542500Y-10062500D01*
X15542500Y-10062500D02*
G75*
G03*
X15542500Y-9937500I0J62500D01*
G01*
X15542500Y-9937500D02*
X15417500Y-9937500D01*
X15417500Y-9937500D02*
G75*
G03*
X15417500Y-10062500I0J-62500D01*
G01*
D13*
X15542500Y-10470000D02*
G75*
G03*
X15542500Y-10470000I-62500J0D01*
G01*
D11*
X15417500Y-10532500D02*
X15542500Y-10532500D01*
X15542500Y-10532500D02*
G75*
G03*
X15542500Y-10407500I0J62500D01*
G01*
X15542500Y-10407500D02*
X15417500Y-10407500D01*
X15417500Y-10407500D02*
G75*
G03*
X15417500Y-10532500I0J-62500D01*
G01*
X14095119Y-10990024D02*
X14095119Y-10790024D01*
X14095119Y-10790024D02*
X14142738Y-10790024D01*
X14142738Y-10790024D02*
X14171309Y-10799548D01*
X14171309Y-10799548D02*
X14190357Y-10818595D01*
X14190357Y-10818595D02*
X14199881Y-10837643D01*
X14199881Y-10837643D02*
X14209405Y-10875738D01*
X14209405Y-10875738D02*
X14209405Y-10904310D01*
X14209405Y-10904310D02*
X14199881Y-10942405D01*
X14199881Y-10942405D02*
X14190357Y-10961452D01*
X14190357Y-10961452D02*
X14171309Y-10980500D01*
X14171309Y-10980500D02*
X14142738Y-10990024D01*
X14142738Y-10990024D02*
X14095119Y-10990024D01*
X14295119Y-10990024D02*
X14295119Y-10856690D01*
X14295119Y-10894786D02*
X14304643Y-10875738D01*
X14304643Y-10875738D02*
X14314167Y-10866214D01*
X14314167Y-10866214D02*
X14333214Y-10856690D01*
X14333214Y-10856690D02*
X14352262Y-10856690D01*
X14418928Y-10990024D02*
X14418928Y-10856690D01*
X14418928Y-10790024D02*
X14409405Y-10799548D01*
X14409405Y-10799548D02*
X14418928Y-10809071D01*
X14418928Y-10809071D02*
X14428452Y-10799548D01*
X14428452Y-10799548D02*
X14418928Y-10790024D01*
X14418928Y-10790024D02*
X14418928Y-10809071D01*
X14542738Y-10990024D02*
X14523690Y-10980500D01*
X14523690Y-10980500D02*
X14514167Y-10961452D01*
X14514167Y-10961452D02*
X14514167Y-10790024D01*
X14647500Y-10990024D02*
X14628452Y-10980500D01*
X14628452Y-10980500D02*
X14618928Y-10961452D01*
X14618928Y-10961452D02*
X14618928Y-10790024D01*
X14876071Y-10990024D02*
X14876071Y-10790024D01*
X14876071Y-10790024D02*
X14942738Y-10932881D01*
X14942738Y-10932881D02*
X15009405Y-10790024D01*
X15009405Y-10790024D02*
X15009405Y-10990024D01*
X15190357Y-10990024D02*
X15190357Y-10885262D01*
X15190357Y-10885262D02*
X15180833Y-10866214D01*
X15180833Y-10866214D02*
X15161786Y-10856690D01*
X15161786Y-10856690D02*
X15123690Y-10856690D01*
X15123690Y-10856690D02*
X15104643Y-10866214D01*
X15190357Y-10980500D02*
X15171309Y-10990024D01*
X15171309Y-10990024D02*
X15123690Y-10990024D01*
X15123690Y-10990024D02*
X15104643Y-10980500D01*
X15104643Y-10980500D02*
X15095119Y-10961452D01*
X15095119Y-10961452D02*
X15095119Y-10942405D01*
X15095119Y-10942405D02*
X15104643Y-10923357D01*
X15104643Y-10923357D02*
X15123690Y-10913833D01*
X15123690Y-10913833D02*
X15171309Y-10913833D01*
X15171309Y-10913833D02*
X15190357Y-10904310D01*
X15285595Y-10856690D02*
X15285595Y-11056690D01*
X15285595Y-10866214D02*
X15304643Y-10856690D01*
X15304643Y-10856690D02*
X15342738Y-10856690D01*
X15342738Y-10856690D02*
X15361786Y-10866214D01*
X15361786Y-10866214D02*
X15371309Y-10875738D01*
X15371309Y-10875738D02*
X15380833Y-10894786D01*
X15380833Y-10894786D02*
X15380833Y-10951929D01*
X15380833Y-10951929D02*
X15371309Y-10970976D01*
X15371309Y-10970976D02*
X15361786Y-10980500D01*
X15361786Y-10980500D02*
X15342738Y-10990024D01*
X15342738Y-10990024D02*
X15304643Y-10990024D01*
X15304643Y-10990024D02*
X15285595Y-10980500D01*
X15466548Y-10970976D02*
X15476071Y-10980500D01*
X15476071Y-10980500D02*
X15466548Y-10990024D01*
X15466548Y-10990024D02*
X15457024Y-10980500D01*
X15457024Y-10980500D02*
X15466548Y-10970976D01*
X15466548Y-10970976D02*
X15466548Y-10990024D01*
X15466548Y-10866214D02*
X15476071Y-10875738D01*
X15476071Y-10875738D02*
X15466548Y-10885262D01*
X15466548Y-10885262D02*
X15457024Y-10875738D01*
X15457024Y-10875738D02*
X15466548Y-10866214D01*
X15466548Y-10866214D02*
X15466548Y-10885262D01*
D12*
X13747500Y-11267500D02*
X13847500Y-11367500D01*
X13847500Y-11267500D02*
X13747500Y-11367500D01*
D11*
X14199881Y-11410024D02*
X14085595Y-11410024D01*
X14142738Y-11410024D02*
X14142738Y-11210024D01*
X14142738Y-11210024D02*
X14123690Y-11238595D01*
X14123690Y-11238595D02*
X14104643Y-11257643D01*
X14104643Y-11257643D02*
X14085595Y-11267167D01*
X14285595Y-11390976D02*
X14295119Y-11400500D01*
X14295119Y-11400500D02*
X14285595Y-11410024D01*
X14285595Y-11410024D02*
X14276071Y-11400500D01*
X14276071Y-11400500D02*
X14285595Y-11390976D01*
X14285595Y-11390976D02*
X14285595Y-11410024D01*
X14418928Y-11210024D02*
X14437976Y-11210024D01*
X14437976Y-11210024D02*
X14457024Y-11219548D01*
X14457024Y-11219548D02*
X14466548Y-11229071D01*
X14466548Y-11229071D02*
X14476071Y-11248119D01*
X14476071Y-11248119D02*
X14485595Y-11286214D01*
X14485595Y-11286214D02*
X14485595Y-11333833D01*
X14485595Y-11333833D02*
X14476071Y-11371928D01*
X14476071Y-11371928D02*
X14466548Y-11390976D01*
X14466548Y-11390976D02*
X14457024Y-11400500D01*
X14457024Y-11400500D02*
X14437976Y-11410024D01*
X14437976Y-11410024D02*
X14418928Y-11410024D01*
X14418928Y-11410024D02*
X14399881Y-11400500D01*
X14399881Y-11400500D02*
X14390357Y-11390976D01*
X14390357Y-11390976D02*
X14380833Y-11371928D01*
X14380833Y-11371928D02*
X14371309Y-11333833D01*
X14371309Y-11333833D02*
X14371309Y-11286214D01*
X14371309Y-11286214D02*
X14380833Y-11248119D01*
X14380833Y-11248119D02*
X14390357Y-11229071D01*
X14390357Y-11229071D02*
X14399881Y-11219548D01*
X14399881Y-11219548D02*
X14418928Y-11210024D01*
X14609405Y-11210024D02*
X14628452Y-11210024D01*
X14628452Y-11210024D02*
X14647500Y-11219548D01*
X14647500Y-11219548D02*
X14657024Y-11229071D01*
X14657024Y-11229071D02*
X14666548Y-11248119D01*
X14666548Y-11248119D02*
X14676071Y-11286214D01*
X14676071Y-11286214D02*
X14676071Y-11333833D01*
X14676071Y-11333833D02*
X14666548Y-11371928D01*
X14666548Y-11371928D02*
X14657024Y-11390976D01*
X14657024Y-11390976D02*
X14647500Y-11400500D01*
X14647500Y-11400500D02*
X14628452Y-11410024D01*
X14628452Y-11410024D02*
X14609405Y-11410024D01*
X14609405Y-11410024D02*
X14590357Y-11400500D01*
X14590357Y-11400500D02*
X14580833Y-11390976D01*
X14580833Y-11390976D02*
X14571309Y-11371928D01*
X14571309Y-11371928D02*
X14561786Y-11333833D01*
X14561786Y-11333833D02*
X14561786Y-11286214D01*
X14561786Y-11286214D02*
X14571309Y-11248119D01*
X14571309Y-11248119D02*
X14580833Y-11229071D01*
X14580833Y-11229071D02*
X14590357Y-11219548D01*
X14590357Y-11219548D02*
X14609405Y-11210024D01*
X14799881Y-11210024D02*
X14818929Y-11210024D01*
X14818929Y-11210024D02*
X14837976Y-11219548D01*
X14837976Y-11219548D02*
X14847500Y-11229071D01*
X14847500Y-11229071D02*
X14857024Y-11248119D01*
X14857024Y-11248119D02*
X14866548Y-11286214D01*
X14866548Y-11286214D02*
X14866548Y-11333833D01*
X14866548Y-11333833D02*
X14857024Y-11371928D01*
X14857024Y-11371928D02*
X14847500Y-11390976D01*
X14847500Y-11390976D02*
X14837976Y-11400500D01*
X14837976Y-11400500D02*
X14818929Y-11410024D01*
X14818929Y-11410024D02*
X14799881Y-11410024D01*
X14799881Y-11410024D02*
X14780833Y-11400500D01*
X14780833Y-11400500D02*
X14771309Y-11390976D01*
X14771309Y-11390976D02*
X14761786Y-11371928D01*
X14761786Y-11371928D02*
X14752262Y-11333833D01*
X14752262Y-11333833D02*
X14752262Y-11286214D01*
X14752262Y-11286214D02*
X14761786Y-11248119D01*
X14761786Y-11248119D02*
X14771309Y-11229071D01*
X14771309Y-11229071D02*
X14780833Y-11219548D01*
X14780833Y-11219548D02*
X14799881Y-11210024D01*
X14952262Y-11410024D02*
X14952262Y-11276690D01*
X14952262Y-11295738D02*
X14961786Y-11286214D01*
X14961786Y-11286214D02*
X14980833Y-11276690D01*
X14980833Y-11276690D02*
X15009405Y-11276690D01*
X15009405Y-11276690D02*
X15028452Y-11286214D01*
X15028452Y-11286214D02*
X15037976Y-11305262D01*
X15037976Y-11305262D02*
X15037976Y-11410024D01*
X15037976Y-11305262D02*
X15047500Y-11286214D01*
X15047500Y-11286214D02*
X15066548Y-11276690D01*
X15066548Y-11276690D02*
X15095119Y-11276690D01*
X15095119Y-11276690D02*
X15114167Y-11286214D01*
X15114167Y-11286214D02*
X15123690Y-11305262D01*
X15123690Y-11305262D02*
X15123690Y-11410024D01*
X15218929Y-11410024D02*
X15218929Y-11276690D01*
X15218929Y-11295738D02*
X15228452Y-11286214D01*
X15228452Y-11286214D02*
X15247500Y-11276690D01*
X15247500Y-11276690D02*
X15276071Y-11276690D01*
X15276071Y-11276690D02*
X15295119Y-11286214D01*
X15295119Y-11286214D02*
X15304643Y-11305262D01*
X15304643Y-11305262D02*
X15304643Y-11410024D01*
X15304643Y-11305262D02*
X15314167Y-11286214D01*
X15314167Y-11286214D02*
X15333214Y-11276690D01*
X15333214Y-11276690D02*
X15361786Y-11276690D01*
X15361786Y-11276690D02*
X15380833Y-11286214D01*
X15380833Y-11286214D02*
X15390357Y-11305262D01*
X15390357Y-11305262D02*
X15390357Y-11410024D01*
X15780833Y-11200500D02*
X15609405Y-11457643D01*
X16037976Y-11210024D02*
X16057024Y-11210024D01*
X16057024Y-11210024D02*
X16076072Y-11219548D01*
X16076072Y-11219548D02*
X16085595Y-11229071D01*
X16085595Y-11229071D02*
X16095119Y-11248119D01*
X16095119Y-11248119D02*
X16104643Y-11286214D01*
X16104643Y-11286214D02*
X16104643Y-11333833D01*
X16104643Y-11333833D02*
X16095119Y-11371928D01*
X16095119Y-11371928D02*
X16085595Y-11390976D01*
X16085595Y-11390976D02*
X16076072Y-11400500D01*
X16076072Y-11400500D02*
X16057024Y-11410024D01*
X16057024Y-11410024D02*
X16037976Y-11410024D01*
X16037976Y-11410024D02*
X16018929Y-11400500D01*
X16018929Y-11400500D02*
X16009405Y-11390976D01*
X16009405Y-11390976D02*
X15999881Y-11371928D01*
X15999881Y-11371928D02*
X15990357Y-11333833D01*
X15990357Y-11333833D02*
X15990357Y-11286214D01*
X15990357Y-11286214D02*
X15999881Y-11248119D01*
X15999881Y-11248119D02*
X16009405Y-11229071D01*
X16009405Y-11229071D02*
X16018929Y-11219548D01*
X16018929Y-11219548D02*
X16037976Y-11210024D01*
X16190357Y-11390976D02*
X16199881Y-11400500D01*
X16199881Y-11400500D02*
X16190357Y-11410024D01*
X16190357Y-11410024D02*
X16180833Y-11400500D01*
X16180833Y-11400500D02*
X16190357Y-11390976D01*
X16190357Y-11390976D02*
X16190357Y-11410024D01*
X16323691Y-11210024D02*
X16342738Y-11210024D01*
X16342738Y-11210024D02*
X16361786Y-11219548D01*
X16361786Y-11219548D02*
X16371310Y-11229071D01*
X16371310Y-11229071D02*
X16380833Y-11248119D01*
X16380833Y-11248119D02*
X16390357Y-11286214D01*
X16390357Y-11286214D02*
X16390357Y-11333833D01*
X16390357Y-11333833D02*
X16380833Y-11371928D01*
X16380833Y-11371928D02*
X16371310Y-11390976D01*
X16371310Y-11390976D02*
X16361786Y-11400500D01*
X16361786Y-11400500D02*
X16342738Y-11410024D01*
X16342738Y-11410024D02*
X16323691Y-11410024D01*
X16323691Y-11410024D02*
X16304643Y-11400500D01*
X16304643Y-11400500D02*
X16295119Y-11390976D01*
X16295119Y-11390976D02*
X16285595Y-11371928D01*
X16285595Y-11371928D02*
X16276072Y-11333833D01*
X16276072Y-11333833D02*
X16276072Y-11286214D01*
X16276072Y-11286214D02*
X16285595Y-11248119D01*
X16285595Y-11248119D02*
X16295119Y-11229071D01*
X16295119Y-11229071D02*
X16304643Y-11219548D01*
X16304643Y-11219548D02*
X16323691Y-11210024D01*
X16457024Y-11210024D02*
X16580833Y-11210024D01*
X16580833Y-11210024D02*
X16514167Y-11286214D01*
X16514167Y-11286214D02*
X16542738Y-11286214D01*
X16542738Y-11286214D02*
X16561786Y-11295738D01*
X16561786Y-11295738D02*
X16571310Y-11305262D01*
X16571310Y-11305262D02*
X16580833Y-11324309D01*
X16580833Y-11324309D02*
X16580833Y-11371928D01*
X16580833Y-11371928D02*
X16571310Y-11390976D01*
X16571310Y-11390976D02*
X16561786Y-11400500D01*
X16561786Y-11400500D02*
X16542738Y-11410024D01*
X16542738Y-11410024D02*
X16485595Y-11410024D01*
X16485595Y-11410024D02*
X16466548Y-11400500D01*
X16466548Y-11400500D02*
X16457024Y-11390976D01*
X16676072Y-11410024D02*
X16714167Y-11410024D01*
X16714167Y-11410024D02*
X16733214Y-11400500D01*
X16733214Y-11400500D02*
X16742738Y-11390976D01*
X16742738Y-11390976D02*
X16761786Y-11362405D01*
X16761786Y-11362405D02*
X16771310Y-11324309D01*
X16771310Y-11324309D02*
X16771310Y-11248119D01*
X16771310Y-11248119D02*
X16761786Y-11229071D01*
X16761786Y-11229071D02*
X16752262Y-11219548D01*
X16752262Y-11219548D02*
X16733214Y-11210024D01*
X16733214Y-11210024D02*
X16695119Y-11210024D01*
X16695119Y-11210024D02*
X16676072Y-11219548D01*
X16676072Y-11219548D02*
X16666548Y-11229071D01*
X16666548Y-11229071D02*
X16657024Y-11248119D01*
X16657024Y-11248119D02*
X16657024Y-11295738D01*
X16657024Y-11295738D02*
X16666548Y-11314786D01*
X16666548Y-11314786D02*
X16676072Y-11324309D01*
X16676072Y-11324309D02*
X16695119Y-11333833D01*
X16695119Y-11333833D02*
X16733214Y-11333833D01*
X16733214Y-11333833D02*
X16752262Y-11324309D01*
X16752262Y-11324309D02*
X16761786Y-11314786D01*
X16761786Y-11314786D02*
X16771310Y-11295738D01*
X16942738Y-11276690D02*
X16942738Y-11410024D01*
X16895119Y-11200500D02*
X16847500Y-11343357D01*
X16847500Y-11343357D02*
X16971310Y-11343357D01*
X17037976Y-11210024D02*
X17037976Y-11248119D01*
X17114167Y-11210024D02*
X17114167Y-11248119D01*
X17409405Y-11486214D02*
X17399881Y-11476690D01*
X17399881Y-11476690D02*
X17380834Y-11448119D01*
X17380834Y-11448119D02*
X17371310Y-11429071D01*
X17371310Y-11429071D02*
X17361786Y-11400500D01*
X17361786Y-11400500D02*
X17352262Y-11352881D01*
X17352262Y-11352881D02*
X17352262Y-11314786D01*
X17352262Y-11314786D02*
X17361786Y-11267167D01*
X17361786Y-11267167D02*
X17371310Y-11238595D01*
X17371310Y-11238595D02*
X17380834Y-11219548D01*
X17380834Y-11219548D02*
X17399881Y-11190976D01*
X17399881Y-11190976D02*
X17409405Y-11181452D01*
X17590357Y-11410024D02*
X17476072Y-11410024D01*
X17533215Y-11410024D02*
X17533215Y-11210024D01*
X17533215Y-11210024D02*
X17514167Y-11238595D01*
X17514167Y-11238595D02*
X17495119Y-11257643D01*
X17495119Y-11257643D02*
X17476072Y-11267167D01*
X17714167Y-11210024D02*
X17733215Y-11210024D01*
X17733215Y-11210024D02*
X17752262Y-11219548D01*
X17752262Y-11219548D02*
X17761786Y-11229071D01*
X17761786Y-11229071D02*
X17771310Y-11248119D01*
X17771310Y-11248119D02*
X17780834Y-11286214D01*
X17780834Y-11286214D02*
X17780834Y-11333833D01*
X17780834Y-11333833D02*
X17771310Y-11371928D01*
X17771310Y-11371928D02*
X17761786Y-11390976D01*
X17761786Y-11390976D02*
X17752262Y-11400500D01*
X17752262Y-11400500D02*
X17733215Y-11410024D01*
X17733215Y-11410024D02*
X17714167Y-11410024D01*
X17714167Y-11410024D02*
X17695119Y-11400500D01*
X17695119Y-11400500D02*
X17685596Y-11390976D01*
X17685596Y-11390976D02*
X17676072Y-11371928D01*
X17676072Y-11371928D02*
X17666548Y-11333833D01*
X17666548Y-11333833D02*
X17666548Y-11286214D01*
X17666548Y-11286214D02*
X17676072Y-11248119D01*
X17676072Y-11248119D02*
X17685596Y-11229071D01*
X17685596Y-11229071D02*
X17695119Y-11219548D01*
X17695119Y-11219548D02*
X17714167Y-11210024D01*
X18018929Y-11410024D02*
X18018929Y-11210024D01*
X18104643Y-11410024D02*
X18104643Y-11305262D01*
X18104643Y-11305262D02*
X18095119Y-11286214D01*
X18095119Y-11286214D02*
X18076072Y-11276690D01*
X18076072Y-11276690D02*
X18047500Y-11276690D01*
X18047500Y-11276690D02*
X18028453Y-11286214D01*
X18028453Y-11286214D02*
X18018929Y-11295738D01*
X18228453Y-11410024D02*
X18209405Y-11400500D01*
X18209405Y-11400500D02*
X18199881Y-11390976D01*
X18199881Y-11390976D02*
X18190358Y-11371928D01*
X18190358Y-11371928D02*
X18190358Y-11314786D01*
X18190358Y-11314786D02*
X18199881Y-11295738D01*
X18199881Y-11295738D02*
X18209405Y-11286214D01*
X18209405Y-11286214D02*
X18228453Y-11276690D01*
X18228453Y-11276690D02*
X18257024Y-11276690D01*
X18257024Y-11276690D02*
X18276072Y-11286214D01*
X18276072Y-11286214D02*
X18285596Y-11295738D01*
X18285596Y-11295738D02*
X18295119Y-11314786D01*
X18295119Y-11314786D02*
X18295119Y-11371928D01*
X18295119Y-11371928D02*
X18285596Y-11390976D01*
X18285596Y-11390976D02*
X18276072Y-11400500D01*
X18276072Y-11400500D02*
X18257024Y-11410024D01*
X18257024Y-11410024D02*
X18228453Y-11410024D01*
X18409405Y-11410024D02*
X18390358Y-11400500D01*
X18390358Y-11400500D02*
X18380834Y-11381452D01*
X18380834Y-11381452D02*
X18380834Y-11210024D01*
X18561786Y-11400500D02*
X18542739Y-11410024D01*
X18542739Y-11410024D02*
X18504643Y-11410024D01*
X18504643Y-11410024D02*
X18485596Y-11400500D01*
X18485596Y-11400500D02*
X18476072Y-11381452D01*
X18476072Y-11381452D02*
X18476072Y-11305262D01*
X18476072Y-11305262D02*
X18485596Y-11286214D01*
X18485596Y-11286214D02*
X18504643Y-11276690D01*
X18504643Y-11276690D02*
X18542739Y-11276690D01*
X18542739Y-11276690D02*
X18561786Y-11286214D01*
X18561786Y-11286214D02*
X18571310Y-11305262D01*
X18571310Y-11305262D02*
X18571310Y-11324309D01*
X18571310Y-11324309D02*
X18476072Y-11343357D01*
X18647500Y-11400500D02*
X18666548Y-11410024D01*
X18666548Y-11410024D02*
X18704643Y-11410024D01*
X18704643Y-11410024D02*
X18723691Y-11400500D01*
X18723691Y-11400500D02*
X18733215Y-11381452D01*
X18733215Y-11381452D02*
X18733215Y-11371928D01*
X18733215Y-11371928D02*
X18723691Y-11352881D01*
X18723691Y-11352881D02*
X18704643Y-11343357D01*
X18704643Y-11343357D02*
X18676072Y-11343357D01*
X18676072Y-11343357D02*
X18657024Y-11333833D01*
X18657024Y-11333833D02*
X18647500Y-11314786D01*
X18647500Y-11314786D02*
X18647500Y-11305262D01*
X18647500Y-11305262D02*
X18657024Y-11286214D01*
X18657024Y-11286214D02*
X18676072Y-11276690D01*
X18676072Y-11276690D02*
X18704643Y-11276690D01*
X18704643Y-11276690D02*
X18723691Y-11286214D01*
X18799881Y-11486214D02*
X18809405Y-11476690D01*
X18809405Y-11476690D02*
X18828453Y-11448119D01*
X18828453Y-11448119D02*
X18837977Y-11429071D01*
X18837977Y-11429071D02*
X18847500Y-11400500D01*
X18847500Y-11400500D02*
X18857024Y-11352881D01*
X18857024Y-11352881D02*
X18857024Y-11314786D01*
X18857024Y-11314786D02*
X18847500Y-11267167D01*
X18847500Y-11267167D02*
X18837977Y-11238595D01*
X18837977Y-11238595D02*
X18828453Y-11219548D01*
X18828453Y-11219548D02*
X18809405Y-11190976D01*
X18809405Y-11190976D02*
X18799881Y-11181452D01*
D13*
X13847500Y-11581500D02*
G75*
G03*
X13847500Y-11581500I-62500J0D01*
G01*
D11*
X14199881Y-11674024D02*
X14085595Y-11674024D01*
X14142738Y-11674024D02*
X14142738Y-11474024D01*
X14142738Y-11474024D02*
X14123690Y-11502595D01*
X14123690Y-11502595D02*
X14104643Y-11521643D01*
X14104643Y-11521643D02*
X14085595Y-11531167D01*
X14285595Y-11654976D02*
X14295119Y-11664500D01*
X14295119Y-11664500D02*
X14285595Y-11674024D01*
X14285595Y-11674024D02*
X14276071Y-11664500D01*
X14276071Y-11664500D02*
X14285595Y-11654976D01*
X14285595Y-11654976D02*
X14285595Y-11674024D01*
X14371309Y-11493071D02*
X14380833Y-11483548D01*
X14380833Y-11483548D02*
X14399881Y-11474024D01*
X14399881Y-11474024D02*
X14447500Y-11474024D01*
X14447500Y-11474024D02*
X14466548Y-11483548D01*
X14466548Y-11483548D02*
X14476071Y-11493071D01*
X14476071Y-11493071D02*
X14485595Y-11512119D01*
X14485595Y-11512119D02*
X14485595Y-11531167D01*
X14485595Y-11531167D02*
X14476071Y-11559738D01*
X14476071Y-11559738D02*
X14361786Y-11674024D01*
X14361786Y-11674024D02*
X14485595Y-11674024D01*
X14666548Y-11474024D02*
X14571309Y-11474024D01*
X14571309Y-11474024D02*
X14561786Y-11569262D01*
X14561786Y-11569262D02*
X14571309Y-11559738D01*
X14571309Y-11559738D02*
X14590357Y-11550214D01*
X14590357Y-11550214D02*
X14637976Y-11550214D01*
X14637976Y-11550214D02*
X14657024Y-11559738D01*
X14657024Y-11559738D02*
X14666548Y-11569262D01*
X14666548Y-11569262D02*
X14676071Y-11588309D01*
X14676071Y-11588309D02*
X14676071Y-11635928D01*
X14676071Y-11635928D02*
X14666548Y-11654976D01*
X14666548Y-11654976D02*
X14657024Y-11664500D01*
X14657024Y-11664500D02*
X14637976Y-11674024D01*
X14637976Y-11674024D02*
X14590357Y-11674024D01*
X14590357Y-11674024D02*
X14571309Y-11664500D01*
X14571309Y-11664500D02*
X14561786Y-11654976D01*
X14799881Y-11474024D02*
X14818929Y-11474024D01*
X14818929Y-11474024D02*
X14837976Y-11483548D01*
X14837976Y-11483548D02*
X14847500Y-11493071D01*
X14847500Y-11493071D02*
X14857024Y-11512119D01*
X14857024Y-11512119D02*
X14866548Y-11550214D01*
X14866548Y-11550214D02*
X14866548Y-11597833D01*
X14866548Y-11597833D02*
X14857024Y-11635928D01*
X14857024Y-11635928D02*
X14847500Y-11654976D01*
X14847500Y-11654976D02*
X14837976Y-11664500D01*
X14837976Y-11664500D02*
X14818929Y-11674024D01*
X14818929Y-11674024D02*
X14799881Y-11674024D01*
X14799881Y-11674024D02*
X14780833Y-11664500D01*
X14780833Y-11664500D02*
X14771309Y-11654976D01*
X14771309Y-11654976D02*
X14761786Y-11635928D01*
X14761786Y-11635928D02*
X14752262Y-11597833D01*
X14752262Y-11597833D02*
X14752262Y-11550214D01*
X14752262Y-11550214D02*
X14761786Y-11512119D01*
X14761786Y-11512119D02*
X14771309Y-11493071D01*
X14771309Y-11493071D02*
X14780833Y-11483548D01*
X14780833Y-11483548D02*
X14799881Y-11474024D01*
X14952262Y-11674024D02*
X14952262Y-11540690D01*
X14952262Y-11559738D02*
X14961786Y-11550214D01*
X14961786Y-11550214D02*
X14980833Y-11540690D01*
X14980833Y-11540690D02*
X15009405Y-11540690D01*
X15009405Y-11540690D02*
X15028452Y-11550214D01*
X15028452Y-11550214D02*
X15037976Y-11569262D01*
X15037976Y-11569262D02*
X15037976Y-11674024D01*
X15037976Y-11569262D02*
X15047500Y-11550214D01*
X15047500Y-11550214D02*
X15066548Y-11540690D01*
X15066548Y-11540690D02*
X15095119Y-11540690D01*
X15095119Y-11540690D02*
X15114167Y-11550214D01*
X15114167Y-11550214D02*
X15123690Y-11569262D01*
X15123690Y-11569262D02*
X15123690Y-11674024D01*
X15218929Y-11674024D02*
X15218929Y-11540690D01*
X15218929Y-11559738D02*
X15228452Y-11550214D01*
X15228452Y-11550214D02*
X15247500Y-11540690D01*
X15247500Y-11540690D02*
X15276071Y-11540690D01*
X15276071Y-11540690D02*
X15295119Y-11550214D01*
X15295119Y-11550214D02*
X15304643Y-11569262D01*
X15304643Y-11569262D02*
X15304643Y-11674024D01*
X15304643Y-11569262D02*
X15314167Y-11550214D01*
X15314167Y-11550214D02*
X15333214Y-11540690D01*
X15333214Y-11540690D02*
X15361786Y-11540690D01*
X15361786Y-11540690D02*
X15380833Y-11550214D01*
X15380833Y-11550214D02*
X15390357Y-11569262D01*
X15390357Y-11569262D02*
X15390357Y-11674024D01*
X15780833Y-11464500D02*
X15609405Y-11721643D01*
X16037976Y-11474024D02*
X16057024Y-11474024D01*
X16057024Y-11474024D02*
X16076072Y-11483548D01*
X16076072Y-11483548D02*
X16085595Y-11493071D01*
X16085595Y-11493071D02*
X16095119Y-11512119D01*
X16095119Y-11512119D02*
X16104643Y-11550214D01*
X16104643Y-11550214D02*
X16104643Y-11597833D01*
X16104643Y-11597833D02*
X16095119Y-11635928D01*
X16095119Y-11635928D02*
X16085595Y-11654976D01*
X16085595Y-11654976D02*
X16076072Y-11664500D01*
X16076072Y-11664500D02*
X16057024Y-11674024D01*
X16057024Y-11674024D02*
X16037976Y-11674024D01*
X16037976Y-11674024D02*
X16018929Y-11664500D01*
X16018929Y-11664500D02*
X16009405Y-11654976D01*
X16009405Y-11654976D02*
X15999881Y-11635928D01*
X15999881Y-11635928D02*
X15990357Y-11597833D01*
X15990357Y-11597833D02*
X15990357Y-11550214D01*
X15990357Y-11550214D02*
X15999881Y-11512119D01*
X15999881Y-11512119D02*
X16009405Y-11493071D01*
X16009405Y-11493071D02*
X16018929Y-11483548D01*
X16018929Y-11483548D02*
X16037976Y-11474024D01*
X16190357Y-11654976D02*
X16199881Y-11664500D01*
X16199881Y-11664500D02*
X16190357Y-11674024D01*
X16190357Y-11674024D02*
X16180833Y-11664500D01*
X16180833Y-11664500D02*
X16190357Y-11654976D01*
X16190357Y-11654976D02*
X16190357Y-11674024D01*
X16323691Y-11474024D02*
X16342738Y-11474024D01*
X16342738Y-11474024D02*
X16361786Y-11483548D01*
X16361786Y-11483548D02*
X16371310Y-11493071D01*
X16371310Y-11493071D02*
X16380833Y-11512119D01*
X16380833Y-11512119D02*
X16390357Y-11550214D01*
X16390357Y-11550214D02*
X16390357Y-11597833D01*
X16390357Y-11597833D02*
X16380833Y-11635928D01*
X16380833Y-11635928D02*
X16371310Y-11654976D01*
X16371310Y-11654976D02*
X16361786Y-11664500D01*
X16361786Y-11664500D02*
X16342738Y-11674024D01*
X16342738Y-11674024D02*
X16323691Y-11674024D01*
X16323691Y-11674024D02*
X16304643Y-11664500D01*
X16304643Y-11664500D02*
X16295119Y-11654976D01*
X16295119Y-11654976D02*
X16285595Y-11635928D01*
X16285595Y-11635928D02*
X16276072Y-11597833D01*
X16276072Y-11597833D02*
X16276072Y-11550214D01*
X16276072Y-11550214D02*
X16285595Y-11512119D01*
X16285595Y-11512119D02*
X16295119Y-11493071D01*
X16295119Y-11493071D02*
X16304643Y-11483548D01*
X16304643Y-11483548D02*
X16323691Y-11474024D01*
X16561786Y-11540690D02*
X16561786Y-11674024D01*
X16514167Y-11464500D02*
X16466548Y-11607357D01*
X16466548Y-11607357D02*
X16590357Y-11607357D01*
X16676072Y-11674024D02*
X16714167Y-11674024D01*
X16714167Y-11674024D02*
X16733214Y-11664500D01*
X16733214Y-11664500D02*
X16742738Y-11654976D01*
X16742738Y-11654976D02*
X16761786Y-11626405D01*
X16761786Y-11626405D02*
X16771310Y-11588309D01*
X16771310Y-11588309D02*
X16771310Y-11512119D01*
X16771310Y-11512119D02*
X16761786Y-11493071D01*
X16761786Y-11493071D02*
X16752262Y-11483548D01*
X16752262Y-11483548D02*
X16733214Y-11474024D01*
X16733214Y-11474024D02*
X16695119Y-11474024D01*
X16695119Y-11474024D02*
X16676072Y-11483548D01*
X16676072Y-11483548D02*
X16666548Y-11493071D01*
X16666548Y-11493071D02*
X16657024Y-11512119D01*
X16657024Y-11512119D02*
X16657024Y-11559738D01*
X16657024Y-11559738D02*
X16666548Y-11578786D01*
X16666548Y-11578786D02*
X16676072Y-11588309D01*
X16676072Y-11588309D02*
X16695119Y-11597833D01*
X16695119Y-11597833D02*
X16733214Y-11597833D01*
X16733214Y-11597833D02*
X16752262Y-11588309D01*
X16752262Y-11588309D02*
X16761786Y-11578786D01*
X16761786Y-11578786D02*
X16771310Y-11559738D01*
X16847500Y-11493071D02*
X16857024Y-11483548D01*
X16857024Y-11483548D02*
X16876072Y-11474024D01*
X16876072Y-11474024D02*
X16923691Y-11474024D01*
X16923691Y-11474024D02*
X16942738Y-11483548D01*
X16942738Y-11483548D02*
X16952262Y-11493071D01*
X16952262Y-11493071D02*
X16961786Y-11512119D01*
X16961786Y-11512119D02*
X16961786Y-11531167D01*
X16961786Y-11531167D02*
X16952262Y-11559738D01*
X16952262Y-11559738D02*
X16837976Y-11674024D01*
X16837976Y-11674024D02*
X16961786Y-11674024D01*
X17037976Y-11474024D02*
X17037976Y-11512119D01*
X17114167Y-11474024D02*
X17114167Y-11512119D01*
X17409405Y-11750214D02*
X17399881Y-11740690D01*
X17399881Y-11740690D02*
X17380834Y-11712119D01*
X17380834Y-11712119D02*
X17371310Y-11693071D01*
X17371310Y-11693071D02*
X17361786Y-11664500D01*
X17361786Y-11664500D02*
X17352262Y-11616881D01*
X17352262Y-11616881D02*
X17352262Y-11578786D01*
X17352262Y-11578786D02*
X17361786Y-11531167D01*
X17361786Y-11531167D02*
X17371310Y-11502595D01*
X17371310Y-11502595D02*
X17380834Y-11483548D01*
X17380834Y-11483548D02*
X17399881Y-11454976D01*
X17399881Y-11454976D02*
X17409405Y-11445452D01*
X17523691Y-11474024D02*
X17542738Y-11474024D01*
X17542738Y-11474024D02*
X17561786Y-11483548D01*
X17561786Y-11483548D02*
X17571310Y-11493071D01*
X17571310Y-11493071D02*
X17580834Y-11512119D01*
X17580834Y-11512119D02*
X17590357Y-11550214D01*
X17590357Y-11550214D02*
X17590357Y-11597833D01*
X17590357Y-11597833D02*
X17580834Y-11635928D01*
X17580834Y-11635928D02*
X17571310Y-11654976D01*
X17571310Y-11654976D02*
X17561786Y-11664500D01*
X17561786Y-11664500D02*
X17542738Y-11674024D01*
X17542738Y-11674024D02*
X17523691Y-11674024D01*
X17523691Y-11674024D02*
X17504643Y-11664500D01*
X17504643Y-11664500D02*
X17495119Y-11654976D01*
X17495119Y-11654976D02*
X17485596Y-11635928D01*
X17485596Y-11635928D02*
X17476072Y-11597833D01*
X17476072Y-11597833D02*
X17476072Y-11550214D01*
X17476072Y-11550214D02*
X17485596Y-11512119D01*
X17485596Y-11512119D02*
X17495119Y-11493071D01*
X17495119Y-11493071D02*
X17504643Y-11483548D01*
X17504643Y-11483548D02*
X17523691Y-11474024D01*
X17828453Y-11674024D02*
X17828453Y-11474024D01*
X17914167Y-11674024D02*
X17914167Y-11569262D01*
X17914167Y-11569262D02*
X17904643Y-11550214D01*
X17904643Y-11550214D02*
X17885596Y-11540690D01*
X17885596Y-11540690D02*
X17857024Y-11540690D01*
X17857024Y-11540690D02*
X17837977Y-11550214D01*
X17837977Y-11550214D02*
X17828453Y-11559738D01*
X18037977Y-11674024D02*
X18018929Y-11664500D01*
X18018929Y-11664500D02*
X18009405Y-11654976D01*
X18009405Y-11654976D02*
X17999881Y-11635928D01*
X17999881Y-11635928D02*
X17999881Y-11578786D01*
X17999881Y-11578786D02*
X18009405Y-11559738D01*
X18009405Y-11559738D02*
X18018929Y-11550214D01*
X18018929Y-11550214D02*
X18037977Y-11540690D01*
X18037977Y-11540690D02*
X18066548Y-11540690D01*
X18066548Y-11540690D02*
X18085596Y-11550214D01*
X18085596Y-11550214D02*
X18095119Y-11559738D01*
X18095119Y-11559738D02*
X18104643Y-11578786D01*
X18104643Y-11578786D02*
X18104643Y-11635928D01*
X18104643Y-11635928D02*
X18095119Y-11654976D01*
X18095119Y-11654976D02*
X18085596Y-11664500D01*
X18085596Y-11664500D02*
X18066548Y-11674024D01*
X18066548Y-11674024D02*
X18037977Y-11674024D01*
X18218929Y-11674024D02*
X18199881Y-11664500D01*
X18199881Y-11664500D02*
X18190358Y-11645452D01*
X18190358Y-11645452D02*
X18190358Y-11474024D01*
X18371310Y-11664500D02*
X18352262Y-11674024D01*
X18352262Y-11674024D02*
X18314167Y-11674024D01*
X18314167Y-11674024D02*
X18295119Y-11664500D01*
X18295119Y-11664500D02*
X18285596Y-11645452D01*
X18285596Y-11645452D02*
X18285596Y-11569262D01*
X18285596Y-11569262D02*
X18295119Y-11550214D01*
X18295119Y-11550214D02*
X18314167Y-11540690D01*
X18314167Y-11540690D02*
X18352262Y-11540690D01*
X18352262Y-11540690D02*
X18371310Y-11550214D01*
X18371310Y-11550214D02*
X18380834Y-11569262D01*
X18380834Y-11569262D02*
X18380834Y-11588309D01*
X18380834Y-11588309D02*
X18285596Y-11607357D01*
X18457024Y-11664500D02*
X18476072Y-11674024D01*
X18476072Y-11674024D02*
X18514167Y-11674024D01*
X18514167Y-11674024D02*
X18533215Y-11664500D01*
X18533215Y-11664500D02*
X18542739Y-11645452D01*
X18542739Y-11645452D02*
X18542739Y-11635928D01*
X18542739Y-11635928D02*
X18533215Y-11616881D01*
X18533215Y-11616881D02*
X18514167Y-11607357D01*
X18514167Y-11607357D02*
X18485596Y-11607357D01*
X18485596Y-11607357D02*
X18466548Y-11597833D01*
X18466548Y-11597833D02*
X18457024Y-11578786D01*
X18457024Y-11578786D02*
X18457024Y-11569262D01*
X18457024Y-11569262D02*
X18466548Y-11550214D01*
X18466548Y-11550214D02*
X18485596Y-11540690D01*
X18485596Y-11540690D02*
X18514167Y-11540690D01*
X18514167Y-11540690D02*
X18533215Y-11550214D01*
X18780834Y-11597833D02*
X18933215Y-11597833D01*
X18857024Y-11674024D02*
X18857024Y-11521643D01*
X19190358Y-11674024D02*
X19228453Y-11674024D01*
X19228453Y-11674024D02*
X19247501Y-11664500D01*
X19247501Y-11664500D02*
X19257024Y-11654976D01*
X19257024Y-11654976D02*
X19276072Y-11626405D01*
X19276072Y-11626405D02*
X19285596Y-11588309D01*
X19285596Y-11588309D02*
X19285596Y-11512119D01*
X19285596Y-11512119D02*
X19276072Y-11493071D01*
X19276072Y-11493071D02*
X19266548Y-11483548D01*
X19266548Y-11483548D02*
X19247501Y-11474024D01*
X19247501Y-11474024D02*
X19209405Y-11474024D01*
X19209405Y-11474024D02*
X19190358Y-11483548D01*
X19190358Y-11483548D02*
X19180834Y-11493071D01*
X19180834Y-11493071D02*
X19171310Y-11512119D01*
X19171310Y-11512119D02*
X19171310Y-11559738D01*
X19171310Y-11559738D02*
X19180834Y-11578786D01*
X19180834Y-11578786D02*
X19190358Y-11588309D01*
X19190358Y-11588309D02*
X19209405Y-11597833D01*
X19209405Y-11597833D02*
X19247501Y-11597833D01*
X19247501Y-11597833D02*
X19266548Y-11588309D01*
X19266548Y-11588309D02*
X19276072Y-11578786D01*
X19276072Y-11578786D02*
X19285596Y-11559738D01*
X19514167Y-11664500D02*
X19533215Y-11674024D01*
X19533215Y-11674024D02*
X19571310Y-11674024D01*
X19571310Y-11674024D02*
X19590358Y-11664500D01*
X19590358Y-11664500D02*
X19599882Y-11645452D01*
X19599882Y-11645452D02*
X19599882Y-11635928D01*
X19599882Y-11635928D02*
X19590358Y-11616881D01*
X19590358Y-11616881D02*
X19571310Y-11607357D01*
X19571310Y-11607357D02*
X19542739Y-11607357D01*
X19542739Y-11607357D02*
X19523691Y-11597833D01*
X19523691Y-11597833D02*
X19514167Y-11578786D01*
X19514167Y-11578786D02*
X19514167Y-11569262D01*
X19514167Y-11569262D02*
X19523691Y-11550214D01*
X19523691Y-11550214D02*
X19542739Y-11540690D01*
X19542739Y-11540690D02*
X19571310Y-11540690D01*
X19571310Y-11540690D02*
X19590358Y-11550214D01*
X19714167Y-11674024D02*
X19695120Y-11664500D01*
X19695120Y-11664500D02*
X19685596Y-11645452D01*
X19685596Y-11645452D02*
X19685596Y-11474024D01*
X19818929Y-11674024D02*
X19799882Y-11664500D01*
X19799882Y-11664500D02*
X19790358Y-11654976D01*
X19790358Y-11654976D02*
X19780834Y-11635928D01*
X19780834Y-11635928D02*
X19780834Y-11578786D01*
X19780834Y-11578786D02*
X19790358Y-11559738D01*
X19790358Y-11559738D02*
X19799882Y-11550214D01*
X19799882Y-11550214D02*
X19818929Y-11540690D01*
X19818929Y-11540690D02*
X19847501Y-11540690D01*
X19847501Y-11540690D02*
X19866548Y-11550214D01*
X19866548Y-11550214D02*
X19876072Y-11559738D01*
X19876072Y-11559738D02*
X19885596Y-11578786D01*
X19885596Y-11578786D02*
X19885596Y-11635928D01*
X19885596Y-11635928D02*
X19876072Y-11654976D01*
X19876072Y-11654976D02*
X19866548Y-11664500D01*
X19866548Y-11664500D02*
X19847501Y-11674024D01*
X19847501Y-11674024D02*
X19818929Y-11674024D01*
X19942739Y-11540690D02*
X20018929Y-11540690D01*
X19971310Y-11474024D02*
X19971310Y-11645452D01*
X19971310Y-11645452D02*
X19980834Y-11664500D01*
X19980834Y-11664500D02*
X19999882Y-11674024D01*
X19999882Y-11674024D02*
X20018929Y-11674024D01*
X20076072Y-11664500D02*
X20095120Y-11674024D01*
X20095120Y-11674024D02*
X20133215Y-11674024D01*
X20133215Y-11674024D02*
X20152263Y-11664500D01*
X20152263Y-11664500D02*
X20161786Y-11645452D01*
X20161786Y-11645452D02*
X20161786Y-11635928D01*
X20161786Y-11635928D02*
X20152263Y-11616881D01*
X20152263Y-11616881D02*
X20133215Y-11607357D01*
X20133215Y-11607357D02*
X20104643Y-11607357D01*
X20104643Y-11607357D02*
X20085596Y-11597833D01*
X20085596Y-11597833D02*
X20076072Y-11578786D01*
X20076072Y-11578786D02*
X20076072Y-11569262D01*
X20076072Y-11569262D02*
X20085596Y-11550214D01*
X20085596Y-11550214D02*
X20104643Y-11540690D01*
X20104643Y-11540690D02*
X20133215Y-11540690D01*
X20133215Y-11540690D02*
X20152263Y-11550214D01*
X20228453Y-11750214D02*
X20237977Y-11740690D01*
X20237977Y-11740690D02*
X20257024Y-11712119D01*
X20257024Y-11712119D02*
X20266548Y-11693071D01*
X20266548Y-11693071D02*
X20276072Y-11664500D01*
X20276072Y-11664500D02*
X20285596Y-11616881D01*
X20285596Y-11616881D02*
X20285596Y-11578786D01*
X20285596Y-11578786D02*
X20276072Y-11531167D01*
X20276072Y-11531167D02*
X20266548Y-11502595D01*
X20266548Y-11502595D02*
X20257024Y-11483548D01*
X20257024Y-11483548D02*
X20237977Y-11454976D01*
X20237977Y-11454976D02*
X20228453Y-11445452D01*
M02*
