%TF.GenerationSoftware,KiCad,Pcbnew,7.0.2*%
%TF.CreationDate,2023-07-27T03:31:46-04:00*%
%TF.ProjectId,switchy,73776974-6368-4792-9e6b-696361645f70,1.0*%
%TF.SameCoordinates,Original*%
%TF.FileFunction,Copper,L2,Bot*%
%TF.FilePolarity,Positive*%
%FSLAX46Y46*%
G04 Gerber Fmt 4.6, Leading zero omitted, Abs format (unit mm)*
G04 Created by KiCad (PCBNEW 7.0.2) date 2023-07-27 03:31:46*
%MOMM*%
%LPD*%
G01*
G04 APERTURE LIST*
%TA.AperFunction,ComponentPad*%
%ADD10C,1.700000*%
%TD*%
%TA.AperFunction,ComponentPad*%
%ADD11R,1.700000X1.700000*%
%TD*%
%TA.AperFunction,ComponentPad*%
%ADD12O,1.700000X1.700000*%
%TD*%
%TA.AperFunction,ComponentPad*%
%ADD13C,2.000000*%
%TD*%
%TA.AperFunction,ComponentPad*%
%ADD14R,3.500000X2.250000*%
%TD*%
%TA.AperFunction,Conductor*%
%ADD15C,0.350000*%
%TD*%
G04 APERTURE END LIST*
D10*
X140000000Y-102750000D03*
D11*
X140000000Y-105290000D03*
X143500000Y-92000000D03*
D12*
X146040000Y-92000000D03*
X148580000Y-92000000D03*
X151120000Y-92000000D03*
X153660000Y-92000000D03*
X156200000Y-92000000D03*
D13*
X140000000Y-99560000D03*
X140000000Y-91940000D03*
D14*
X145200000Y-95300000D03*
X145200000Y-100000000D03*
X145200000Y-104700000D03*
X150000000Y-95300000D03*
X150000000Y-100000000D03*
X150000000Y-104700000D03*
X154800000Y-95300000D03*
X154800000Y-100000000D03*
X154800000Y-104700000D03*
D15*
X150180000Y-95300000D02*
X150000000Y-95300000D01*
X150487279Y-95172720D02*
X153660000Y-92000000D01*
X150180000Y-95299987D02*
G75*
G03*
X150487279Y-95172720I0J434587D01*
G01*
X145049116Y-92990883D02*
X146040000Y-92000000D01*
X145129289Y-99729289D02*
X143389949Y-97989949D01*
X143594974Y-93500000D02*
X143820000Y-93500000D01*
X142400000Y-94694974D02*
X142400000Y-95600000D01*
X145200000Y-99900000D02*
X145200000Y-100000000D01*
X142400001Y-95600000D02*
G75*
G03*
X143389949Y-97989949I3379899J0D01*
G01*
X145200006Y-99900000D02*
G75*
G03*
X145129289Y-99729289I-241406J0D01*
G01*
X142750007Y-93850007D02*
G75*
G03*
X142400000Y-94694974I844993J-844993D01*
G01*
X143594974Y-93499990D02*
G75*
G03*
X142750000Y-93850000I26J-1195010D01*
G01*
X143820000Y-93500009D02*
G75*
G03*
X145049116Y-92990883I0J1738209D01*
G01*
%TA.AperFunction,Conductor*%
G36*
X145266436Y-91679565D02*
G01*
X146036316Y-91997557D01*
X146042654Y-92003883D01*
X146042664Y-92003906D01*
X146360509Y-92773740D01*
X146360498Y-92782695D01*
X146354159Y-92789020D01*
X146353432Y-92789292D01*
X145061926Y-93224725D01*
X145052992Y-93224121D01*
X145048723Y-93220515D01*
X144851536Y-92949118D01*
X144849445Y-92940411D01*
X144849859Y-92938672D01*
X145250829Y-91686809D01*
X145256615Y-91679978D01*
X145265539Y-91679238D01*
X145266436Y-91679565D01*
G37*
%TD.AperFunction*%
%TA.AperFunction,Conductor*%
G36*
X152885768Y-91679288D02*
G01*
X153656215Y-91997438D01*
X153662552Y-92003761D01*
X153662562Y-92003785D01*
X153980706Y-92774220D01*
X153980697Y-92783175D01*
X153974358Y-92789500D01*
X153974097Y-92789604D01*
X152588761Y-93323091D01*
X152579809Y-93322867D01*
X152576283Y-93320446D01*
X152339553Y-93083715D01*
X152336126Y-93075442D01*
X152336906Y-93071242D01*
X152870395Y-91685901D01*
X152876566Y-91679413D01*
X152885518Y-91679189D01*
X152885768Y-91679288D01*
G37*
%TD.AperFunction*%
%TA.AperFunction,Conductor*%
G36*
X152070303Y-93347089D02*
G01*
X152073633Y-93349421D01*
X152310571Y-93586360D01*
X152313998Y-93594633D01*
X152313288Y-93598647D01*
X151752543Y-95133761D01*
X151746485Y-95140357D01*
X151742618Y-95141398D01*
X150009882Y-95299739D01*
X150001331Y-95297080D01*
X149997321Y-95290259D01*
X149788652Y-94184760D01*
X149790485Y-94175998D01*
X149796143Y-94171601D01*
X152061359Y-93346700D01*
X152070303Y-93347089D01*
G37*
%TD.AperFunction*%
%TA.AperFunction,Conductor*%
G36*
X143698999Y-98047464D02*
G01*
X144241354Y-98291637D01*
X145527777Y-98870795D01*
X145533914Y-98877316D01*
X145534184Y-98884814D01*
X145203949Y-99989855D01*
X145198297Y-99996801D01*
X145189755Y-99997818D01*
X143458672Y-99541168D01*
X143451547Y-99535745D01*
X143449957Y-99529914D01*
X143444172Y-98296512D01*
X143447559Y-98288227D01*
X143685926Y-98049860D01*
X143694198Y-98046434D01*
X143698999Y-98047464D01*
G37*
%TD.AperFunction*%
M02*
