%TF.GenerationSoftware,KiCad,Pcbnew,7.0.2*%
%TF.CreationDate,2023-07-27T03:31:46-04:00*%
%TF.ProjectId,switchy,73776974-6368-4792-9e6b-696361645f70,1.0*%
%TF.SameCoordinates,Original*%
%TF.FileFunction,Legend,Top*%
%TF.FilePolarity,Positive*%
%FSLAX46Y46*%
G04 Gerber Fmt 4.6, Leading zero omitted, Abs format (unit mm)*
G04 Created by KiCad (PCBNEW 7.0.2) date 2023-07-27 03:31:46*
%MOMM*%
%LPD*%
G01*
G04 APERTURE LIST*
G04 Aperture macros list*
%AMRoundRect*
0 Rectangle with rounded corners*
0 $1 Rounding radius*
0 $2 $3 $4 $5 $6 $7 $8 $9 X,Y pos of 4 corners*
0 Add a 4 corners polygon primitive as box body*
4,1,4,$2,$3,$4,$5,$6,$7,$8,$9,$2,$3,0*
0 Add four circle primitives for the rounded corners*
1,1,$1+$1,$2,$3*
1,1,$1+$1,$4,$5*
1,1,$1+$1,$6,$7*
1,1,$1+$1,$8,$9*
0 Add four rect primitives between the rounded corners*
20,1,$1+$1,$2,$3,$4,$5,0*
20,1,$1+$1,$4,$5,$6,$7,0*
20,1,$1+$1,$6,$7,$8,$9,0*
20,1,$1+$1,$8,$9,$2,$3,0*%
G04 Aperture macros list end*
%ADD10C,0.150000*%
%ADD11C,0.101600*%
%ADD12C,0.127000*%
%ADD13C,0.120000*%
%ADD14C,0.152400*%
%ADD15C,0.203200*%
%ADD16C,1.700000*%
%ADD17R,1.700000X1.700000*%
%ADD18O,1.700000X1.700000*%
%ADD19C,2.203200*%
%ADD20RoundRect,0.101600X-1.750000X-1.125000X1.750000X-1.125000X1.750000X1.125000X-1.750000X1.125000X0*%
G04 APERTURE END LIST*
D10*
X155000000Y-93662619D02*
X155000000Y-92662619D01*
X147561904Y-92710238D02*
X147466666Y-92662619D01*
X147466666Y-92662619D02*
X147323809Y-92662619D01*
X147323809Y-92662619D02*
X147180952Y-92710238D01*
X147180952Y-92710238D02*
X147085714Y-92805476D01*
X147085714Y-92805476D02*
X147038095Y-92900714D01*
X147038095Y-92900714D02*
X146990476Y-93091190D01*
X146990476Y-93091190D02*
X146990476Y-93234047D01*
X146990476Y-93234047D02*
X147038095Y-93424523D01*
X147038095Y-93424523D02*
X147085714Y-93519761D01*
X147085714Y-93519761D02*
X147180952Y-93615000D01*
X147180952Y-93615000D02*
X147323809Y-93662619D01*
X147323809Y-93662619D02*
X147419047Y-93662619D01*
X147419047Y-93662619D02*
X147561904Y-93615000D01*
X147561904Y-93615000D02*
X147609523Y-93567380D01*
X147609523Y-93567380D02*
X147609523Y-93234047D01*
X147609523Y-93234047D02*
X147419047Y-93234047D01*
X141869048Y-105581666D02*
X142630953Y-105581666D01*
X158537380Y-90900000D02*
X158537380Y-91090476D01*
X158537380Y-91090476D02*
X158489761Y-91185714D01*
X158489761Y-91185714D02*
X158394523Y-91280952D01*
X158394523Y-91280952D02*
X158204047Y-91328571D01*
X158204047Y-91328571D02*
X157870714Y-91328571D01*
X157870714Y-91328571D02*
X157680238Y-91280952D01*
X157680238Y-91280952D02*
X157585000Y-91185714D01*
X157585000Y-91185714D02*
X157537380Y-91090476D01*
X157537380Y-91090476D02*
X157537380Y-90900000D01*
X157537380Y-90900000D02*
X157585000Y-90804762D01*
X157585000Y-90804762D02*
X157680238Y-90709524D01*
X157680238Y-90709524D02*
X157870714Y-90661905D01*
X157870714Y-90661905D02*
X158204047Y-90661905D01*
X158204047Y-90661905D02*
X158394523Y-90709524D01*
X158394523Y-90709524D02*
X158489761Y-90804762D01*
X158489761Y-90804762D02*
X158537380Y-90900000D01*
X158537380Y-91757143D02*
X157727857Y-91757143D01*
X157727857Y-91757143D02*
X157632619Y-91804762D01*
X157632619Y-91804762D02*
X157585000Y-91852381D01*
X157585000Y-91852381D02*
X157537380Y-91947619D01*
X157537380Y-91947619D02*
X157537380Y-92138095D01*
X157537380Y-92138095D02*
X157585000Y-92233333D01*
X157585000Y-92233333D02*
X157632619Y-92280952D01*
X157632619Y-92280952D02*
X157727857Y-92328571D01*
X157727857Y-92328571D02*
X158537380Y-92328571D01*
X158537380Y-92661905D02*
X158537380Y-93233333D01*
X157537380Y-92947619D02*
X158537380Y-92947619D01*
X151928571Y-92877619D02*
X152119047Y-92877619D01*
X152119047Y-92877619D02*
X152214285Y-92925238D01*
X152214285Y-92925238D02*
X152309523Y-93020476D01*
X152309523Y-93020476D02*
X152357142Y-93210952D01*
X152357142Y-93210952D02*
X152357142Y-93544285D01*
X152357142Y-93544285D02*
X152309523Y-93734761D01*
X152309523Y-93734761D02*
X152214285Y-93830000D01*
X152214285Y-93830000D02*
X152119047Y-93877619D01*
X152119047Y-93877619D02*
X151928571Y-93877619D01*
X151928571Y-93877619D02*
X151833333Y-93830000D01*
X151833333Y-93830000D02*
X151738095Y-93734761D01*
X151738095Y-93734761D02*
X151690476Y-93544285D01*
X151690476Y-93544285D02*
X151690476Y-93210952D01*
X151690476Y-93210952D02*
X151738095Y-93020476D01*
X151738095Y-93020476D02*
X151833333Y-92925238D01*
X151833333Y-92925238D02*
X151928571Y-92877619D01*
X152833333Y-92877619D02*
X152738095Y-93068095D01*
X149561905Y-93662619D02*
X149561905Y-92662619D01*
X150085714Y-92662619D02*
X149990476Y-92853095D01*
X141785714Y-94477619D02*
X141976190Y-94477619D01*
X141976190Y-94477619D02*
X142071428Y-94430000D01*
X142071428Y-94430000D02*
X142119047Y-94382380D01*
X142119047Y-94382380D02*
X142214285Y-94239523D01*
X142214285Y-94239523D02*
X142261904Y-94049047D01*
X142261904Y-94049047D02*
X142261904Y-93668095D01*
X142261904Y-93668095D02*
X142214285Y-93572857D01*
X142214285Y-93572857D02*
X142166666Y-93525238D01*
X142166666Y-93525238D02*
X142071428Y-93477619D01*
X142071428Y-93477619D02*
X141880952Y-93477619D01*
X141880952Y-93477619D02*
X141785714Y-93525238D01*
X141785714Y-93525238D02*
X141738095Y-93572857D01*
X141738095Y-93572857D02*
X141690476Y-93668095D01*
X141690476Y-93668095D02*
X141690476Y-93906190D01*
X141690476Y-93906190D02*
X141738095Y-94001428D01*
X141738095Y-94001428D02*
X141785714Y-94049047D01*
X141785714Y-94049047D02*
X141880952Y-94096666D01*
X141880952Y-94096666D02*
X142071428Y-94096666D01*
X142071428Y-94096666D02*
X142166666Y-94049047D01*
X142166666Y-94049047D02*
X142214285Y-94001428D01*
X142214285Y-94001428D02*
X142261904Y-93906190D01*
X142547619Y-93477619D02*
X142880952Y-94477619D01*
X142880952Y-94477619D02*
X143214285Y-93477619D01*
X141462619Y-104283333D02*
X142176904Y-104283333D01*
X142176904Y-104283333D02*
X142319761Y-104330952D01*
X142319761Y-104330952D02*
X142415000Y-104426190D01*
X142415000Y-104426190D02*
X142462619Y-104569047D01*
X142462619Y-104569047D02*
X142462619Y-104664285D01*
X142462619Y-103283333D02*
X142462619Y-103854761D01*
X142462619Y-103569047D02*
X141462619Y-103569047D01*
X141462619Y-103569047D02*
X141605476Y-103664285D01*
X141605476Y-103664285D02*
X141700714Y-103759523D01*
X141700714Y-103759523D02*
X141748333Y-103854761D01*
X140632619Y-92333333D02*
X141346904Y-92333333D01*
X141346904Y-92333333D02*
X141489761Y-92380952D01*
X141489761Y-92380952D02*
X141585000Y-92476190D01*
X141585000Y-92476190D02*
X141632619Y-92619047D01*
X141632619Y-92619047D02*
X141632619Y-92714285D01*
X140727857Y-91904761D02*
X140680238Y-91857142D01*
X140680238Y-91857142D02*
X140632619Y-91761904D01*
X140632619Y-91761904D02*
X140632619Y-91523809D01*
X140632619Y-91523809D02*
X140680238Y-91428571D01*
X140680238Y-91428571D02*
X140727857Y-91380952D01*
X140727857Y-91380952D02*
X140823095Y-91333333D01*
X140823095Y-91333333D02*
X140918333Y-91333333D01*
X140918333Y-91333333D02*
X141061190Y-91380952D01*
X141061190Y-91380952D02*
X141632619Y-91952380D01*
X141632619Y-91952380D02*
X141632619Y-91333333D01*
D11*
X140558150Y-95951083D02*
X139983626Y-96353250D01*
X140558150Y-96640512D02*
X139351650Y-96640512D01*
X139351650Y-96640512D02*
X139351650Y-96180893D01*
X139351650Y-96180893D02*
X139409102Y-96065988D01*
X139409102Y-96065988D02*
X139466555Y-96008535D01*
X139466555Y-96008535D02*
X139581459Y-95951083D01*
X139581459Y-95951083D02*
X139753817Y-95951083D01*
X139753817Y-95951083D02*
X139868721Y-96008535D01*
X139868721Y-96008535D02*
X139926174Y-96065988D01*
X139926174Y-96065988D02*
X139983626Y-96180893D01*
X139983626Y-96180893D02*
X139983626Y-96640512D01*
X140558150Y-94802035D02*
X140558150Y-95491464D01*
X140558150Y-95146750D02*
X139351650Y-95146750D01*
X139351650Y-95146750D02*
X139524007Y-95261654D01*
X139524007Y-95261654D02*
X139638912Y-95376559D01*
X139638912Y-95376559D02*
X139696364Y-95491464D01*
D12*
X149535543Y-97952984D02*
X149622629Y-97982012D01*
X149622629Y-97982012D02*
X149767771Y-97982012D01*
X149767771Y-97982012D02*
X149825829Y-97952984D01*
X149825829Y-97952984D02*
X149854857Y-97923955D01*
X149854857Y-97923955D02*
X149883886Y-97865898D01*
X149883886Y-97865898D02*
X149883886Y-97807841D01*
X149883886Y-97807841D02*
X149854857Y-97749784D01*
X149854857Y-97749784D02*
X149825829Y-97720755D01*
X149825829Y-97720755D02*
X149767771Y-97691726D01*
X149767771Y-97691726D02*
X149651657Y-97662698D01*
X149651657Y-97662698D02*
X149593600Y-97633669D01*
X149593600Y-97633669D02*
X149564571Y-97604641D01*
X149564571Y-97604641D02*
X149535543Y-97546584D01*
X149535543Y-97546584D02*
X149535543Y-97488526D01*
X149535543Y-97488526D02*
X149564571Y-97430469D01*
X149564571Y-97430469D02*
X149593600Y-97401441D01*
X149593600Y-97401441D02*
X149651657Y-97372412D01*
X149651657Y-97372412D02*
X149796800Y-97372412D01*
X149796800Y-97372412D02*
X149883886Y-97401441D01*
X150464457Y-97982012D02*
X150116114Y-97982012D01*
X150290285Y-97982012D02*
X150290285Y-97372412D01*
X150290285Y-97372412D02*
X150232228Y-97459498D01*
X150232228Y-97459498D02*
X150174171Y-97517555D01*
X150174171Y-97517555D02*
X150116114Y-97546584D01*
D13*
X138670000Y-101420000D02*
X140000000Y-101420000D01*
X138670000Y-102750000D02*
X138670000Y-101420000D01*
X138670000Y-104020000D02*
X138670000Y-106620000D01*
X138670000Y-104020000D02*
X141330000Y-104020000D01*
X138670000Y-106620000D02*
X141330000Y-106620000D01*
X141330000Y-104020000D02*
X141330000Y-106620000D01*
X142170000Y-93330000D02*
X142170000Y-92000000D01*
X143500000Y-93330000D02*
X142170000Y-93330000D01*
X144770000Y-93330000D02*
X157530000Y-93330000D01*
X144770000Y-93330000D02*
X144770000Y-90670000D01*
X157530000Y-93330000D02*
X157530000Y-90670000D01*
X144770000Y-90670000D02*
X157530000Y-90670000D01*
D14*
X140762000Y-98560000D02*
X139238000Y-98560000D01*
X138984000Y-98306000D02*
X138984000Y-97290000D01*
X141016000Y-98306000D02*
X141016000Y-97290000D01*
X139111000Y-97163000D02*
X138984000Y-97290000D01*
X140889000Y-97163000D02*
X141016000Y-97290000D01*
X139111000Y-94337000D02*
X139111000Y-97163000D01*
X139111000Y-94337000D02*
X138984000Y-94210000D01*
X140889000Y-94337000D02*
X140889000Y-97163000D01*
X140889000Y-94337000D02*
X141016000Y-94210000D01*
X138984000Y-93194000D02*
X138984000Y-94210000D01*
X141016000Y-93194000D02*
X141016000Y-94210000D01*
X140762000Y-92940000D02*
X139238000Y-92940000D01*
X138984000Y-98306000D02*
G75*
G03*
X139238000Y-98560000I254000J0D01*
G01*
X140762000Y-98560000D02*
G75*
G03*
X141016000Y-98306000I0J254000D01*
G01*
X139238000Y-92940000D02*
G75*
G03*
X138984000Y-93194000I0J-254000D01*
G01*
X141016000Y-93194000D02*
G75*
G03*
X140762000Y-92940000I-254000J0D01*
G01*
D15*
X141500000Y-93400000D02*
X141500000Y-100000000D01*
X141500000Y-93400000D02*
X150000000Y-93400000D01*
X141500000Y-100000000D02*
X141500000Y-106600000D01*
X141500000Y-106600000D02*
X150000000Y-106600000D01*
X150000000Y-93400000D02*
X158500000Y-93400000D01*
X150000000Y-106600000D02*
X158500000Y-106600000D01*
X158500000Y-100000000D02*
X158500000Y-93400000D01*
X158500000Y-106600000D02*
X158500000Y-100000000D01*
%LPC*%
D16*
X140000000Y-102750000D03*
D17*
X140000000Y-105290000D03*
X143500000Y-92000000D03*
D18*
X146040000Y-92000000D03*
X148580000Y-92000000D03*
X151120000Y-92000000D03*
X153660000Y-92000000D03*
X156200000Y-92000000D03*
D19*
X140000000Y-99560000D03*
X140000000Y-91940000D03*
D20*
X145200000Y-95300000D03*
X145200000Y-100000000D03*
X145200000Y-104700000D03*
X150000000Y-95300000D03*
X150000000Y-100000000D03*
X150000000Y-104700000D03*
X154800000Y-95300000D03*
X154800000Y-100000000D03*
X154800000Y-104700000D03*
%LPD*%
M02*
