G04 #@! TF.GenerationSoftware,KiCad,Pcbnew,(5.1.10)-1*
G04 #@! TF.CreationDate,2022-03-26T18:45:22-04:00*
G04 #@! TF.ProjectId,switchy,73776974-6368-4792-9e6b-696361645f70,1.0*
G04 #@! TF.SameCoordinates,Original*
G04 #@! TF.FileFunction,Legend,Bot*
G04 #@! TF.FilePolarity,Positive*
%FSLAX46Y46*%
G04 Gerber Fmt 4.6, Leading zero omitted, Abs format (unit mm)*
G04 Created by KiCad (PCBNEW (5.1.10)-1) date 2022-03-26 18:45:22*
%MOMM*%
%LPD*%
G01*
G04 APERTURE LIST*
%ADD10C,0.150000*%
%ADD11C,2.203200*%
%ADD12R,1.700000X1.700000*%
%ADD13O,1.700000X1.700000*%
%ADD14C,1.700000*%
G04 APERTURE END LIST*
D10*
X147614285Y-93128571D02*
X147280952Y-93128571D01*
X147138095Y-93652380D02*
X147614285Y-93652380D01*
X147614285Y-92652380D01*
X147138095Y-92652380D01*
X149728571Y-93128571D02*
X149585714Y-93176190D01*
X149538095Y-93223809D01*
X149490476Y-93319047D01*
X149490476Y-93461904D01*
X149538095Y-93557142D01*
X149585714Y-93604761D01*
X149680952Y-93652380D01*
X150061904Y-93652380D01*
X150061904Y-92652380D01*
X149728571Y-92652380D01*
X149633333Y-92700000D01*
X149585714Y-92747619D01*
X149538095Y-92842857D01*
X149538095Y-92938095D01*
X149585714Y-93033333D01*
X149633333Y-93080952D01*
X149728571Y-93128571D01*
X150061904Y-93128571D01*
X155000000Y-93652380D02*
X155000000Y-92652380D01*
X157695238Y-92652380D02*
X157504761Y-92652380D01*
X157409523Y-92700000D01*
X157314285Y-92795238D01*
X157266666Y-92985714D01*
X157266666Y-93319047D01*
X157314285Y-93509523D01*
X157409523Y-93604761D01*
X157504761Y-93652380D01*
X157695238Y-93652380D01*
X157790476Y-93604761D01*
X157885714Y-93509523D01*
X157933333Y-93319047D01*
X157933333Y-92985714D01*
X157885714Y-92795238D01*
X157790476Y-92700000D01*
X157695238Y-92652380D01*
%LPC*%
G36*
G01*
X152948400Y-105825000D02*
X152948400Y-103575000D01*
G75*
G02*
X153050000Y-103473400I101600J0D01*
G01*
X156550000Y-103473400D01*
G75*
G02*
X156651600Y-103575000I0J-101600D01*
G01*
X156651600Y-105825000D01*
G75*
G02*
X156550000Y-105926600I-101600J0D01*
G01*
X153050000Y-105926600D01*
G75*
G02*
X152948400Y-105825000I0J101600D01*
G01*
G37*
G36*
G01*
X152948400Y-101125000D02*
X152948400Y-98875000D01*
G75*
G02*
X153050000Y-98773400I101600J0D01*
G01*
X156550000Y-98773400D01*
G75*
G02*
X156651600Y-98875000I0J-101600D01*
G01*
X156651600Y-101125000D01*
G75*
G02*
X156550000Y-101226600I-101600J0D01*
G01*
X153050000Y-101226600D01*
G75*
G02*
X152948400Y-101125000I0J101600D01*
G01*
G37*
G36*
G01*
X152948400Y-96425000D02*
X152948400Y-94175000D01*
G75*
G02*
X153050000Y-94073400I101600J0D01*
G01*
X156550000Y-94073400D01*
G75*
G02*
X156651600Y-94175000I0J-101600D01*
G01*
X156651600Y-96425000D01*
G75*
G02*
X156550000Y-96526600I-101600J0D01*
G01*
X153050000Y-96526600D01*
G75*
G02*
X152948400Y-96425000I0J101600D01*
G01*
G37*
G36*
G01*
X148148400Y-105825000D02*
X148148400Y-103575000D01*
G75*
G02*
X148250000Y-103473400I101600J0D01*
G01*
X151750000Y-103473400D01*
G75*
G02*
X151851600Y-103575000I0J-101600D01*
G01*
X151851600Y-105825000D01*
G75*
G02*
X151750000Y-105926600I-101600J0D01*
G01*
X148250000Y-105926600D01*
G75*
G02*
X148148400Y-105825000I0J101600D01*
G01*
G37*
G36*
G01*
X148148400Y-101125000D02*
X148148400Y-98875000D01*
G75*
G02*
X148250000Y-98773400I101600J0D01*
G01*
X151750000Y-98773400D01*
G75*
G02*
X151851600Y-98875000I0J-101600D01*
G01*
X151851600Y-101125000D01*
G75*
G02*
X151750000Y-101226600I-101600J0D01*
G01*
X148250000Y-101226600D01*
G75*
G02*
X148148400Y-101125000I0J101600D01*
G01*
G37*
G36*
G01*
X148148400Y-96425000D02*
X148148400Y-94175000D01*
G75*
G02*
X148250000Y-94073400I101600J0D01*
G01*
X151750000Y-94073400D01*
G75*
G02*
X151851600Y-94175000I0J-101600D01*
G01*
X151851600Y-96425000D01*
G75*
G02*
X151750000Y-96526600I-101600J0D01*
G01*
X148250000Y-96526600D01*
G75*
G02*
X148148400Y-96425000I0J101600D01*
G01*
G37*
G36*
G01*
X143348400Y-105825000D02*
X143348400Y-103575000D01*
G75*
G02*
X143450000Y-103473400I101600J0D01*
G01*
X146950000Y-103473400D01*
G75*
G02*
X147051600Y-103575000I0J-101600D01*
G01*
X147051600Y-105825000D01*
G75*
G02*
X146950000Y-105926600I-101600J0D01*
G01*
X143450000Y-105926600D01*
G75*
G02*
X143348400Y-105825000I0J101600D01*
G01*
G37*
G36*
G01*
X143348400Y-101125000D02*
X143348400Y-98875000D01*
G75*
G02*
X143450000Y-98773400I101600J0D01*
G01*
X146950000Y-98773400D01*
G75*
G02*
X147051600Y-98875000I0J-101600D01*
G01*
X147051600Y-101125000D01*
G75*
G02*
X146950000Y-101226600I-101600J0D01*
G01*
X143450000Y-101226600D01*
G75*
G02*
X143348400Y-101125000I0J101600D01*
G01*
G37*
G36*
G01*
X143348400Y-96425000D02*
X143348400Y-94175000D01*
G75*
G02*
X143450000Y-94073400I101600J0D01*
G01*
X146950000Y-94073400D01*
G75*
G02*
X147051600Y-94175000I0J-101600D01*
G01*
X147051600Y-96425000D01*
G75*
G02*
X146950000Y-96526600I-101600J0D01*
G01*
X143450000Y-96526600D01*
G75*
G02*
X143348400Y-96425000I0J101600D01*
G01*
G37*
D11*
X140000000Y-91940000D03*
X140000000Y-99560000D03*
D12*
X143500000Y-92000000D03*
D13*
X146040000Y-92000000D03*
X148580000Y-92000000D03*
X151120000Y-92000000D03*
X153660000Y-92000000D03*
X156200000Y-92000000D03*
D14*
X140000000Y-102750000D03*
D12*
X140000000Y-105290000D03*
M02*
