%TF.GenerationSoftware,KiCad,Pcbnew,7.0.2*%
%TF.CreationDate,2023-07-27T03:32:08-04:00*%
%TF.ProjectId,switchy,73776974-6368-4792-9e6b-696361645f70,1.0*%
%TF.SameCoordinates,Original*%
%TF.FileFunction,Drillmap*%
%TF.FilePolarity,Positive*%
%FSLAX45Y45*%
G04 Gerber Fmt 4.5, Leading zero omitted, Abs format (unit mm)*
G04 Created by KiCad (PCBNEW 7.0.2) date 2023-07-27 03:32:08*
%MOMM*%
%LPD*%
G01*
G04 APERTURE LIST*
%ADD10C,0.050000*%
%ADD11C,0.200000*%
G04 APERTURE END LIST*
D10*
X13850000Y-9050000D02*
X15000000Y-9050000D01*
X13850000Y-10675000D02*
X13850000Y-9050000D01*
X15875000Y-10675000D02*
X13850000Y-10675000D01*
X15875000Y-9050000D02*
X15875000Y-10675000D01*
X15000000Y-9050000D02*
X15875000Y-9050000D01*
D11*
X14095119Y-10990024D02*
X14095119Y-10790024D01*
X14095119Y-10790024D02*
X14142738Y-10790024D01*
X14142738Y-10790024D02*
X14171309Y-10799548D01*
X14171309Y-10799548D02*
X14190357Y-10818595D01*
X14190357Y-10818595D02*
X14199881Y-10837643D01*
X14199881Y-10837643D02*
X14209405Y-10875738D01*
X14209405Y-10875738D02*
X14209405Y-10904310D01*
X14209405Y-10904310D02*
X14199881Y-10942405D01*
X14199881Y-10942405D02*
X14190357Y-10961452D01*
X14190357Y-10961452D02*
X14171309Y-10980500D01*
X14171309Y-10980500D02*
X14142738Y-10990024D01*
X14142738Y-10990024D02*
X14095119Y-10990024D01*
X14295119Y-10990024D02*
X14295119Y-10856690D01*
X14295119Y-10894786D02*
X14304643Y-10875738D01*
X14304643Y-10875738D02*
X14314167Y-10866214D01*
X14314167Y-10866214D02*
X14333214Y-10856690D01*
X14333214Y-10856690D02*
X14352262Y-10856690D01*
X14418928Y-10990024D02*
X14418928Y-10856690D01*
X14418928Y-10790024D02*
X14409405Y-10799548D01*
X14409405Y-10799548D02*
X14418928Y-10809071D01*
X14418928Y-10809071D02*
X14428452Y-10799548D01*
X14428452Y-10799548D02*
X14418928Y-10790024D01*
X14418928Y-10790024D02*
X14418928Y-10809071D01*
X14542738Y-10990024D02*
X14523690Y-10980500D01*
X14523690Y-10980500D02*
X14514167Y-10961452D01*
X14514167Y-10961452D02*
X14514167Y-10790024D01*
X14647500Y-10990024D02*
X14628452Y-10980500D01*
X14628452Y-10980500D02*
X14618928Y-10961452D01*
X14618928Y-10961452D02*
X14618928Y-10790024D01*
X14876071Y-10990024D02*
X14876071Y-10790024D01*
X14876071Y-10790024D02*
X14942738Y-10932881D01*
X14942738Y-10932881D02*
X15009405Y-10790024D01*
X15009405Y-10790024D02*
X15009405Y-10990024D01*
X15190357Y-10990024D02*
X15190357Y-10885262D01*
X15190357Y-10885262D02*
X15180833Y-10866214D01*
X15180833Y-10866214D02*
X15161786Y-10856690D01*
X15161786Y-10856690D02*
X15123690Y-10856690D01*
X15123690Y-10856690D02*
X15104643Y-10866214D01*
X15190357Y-10980500D02*
X15171309Y-10990024D01*
X15171309Y-10990024D02*
X15123690Y-10990024D01*
X15123690Y-10990024D02*
X15104643Y-10980500D01*
X15104643Y-10980500D02*
X15095119Y-10961452D01*
X15095119Y-10961452D02*
X15095119Y-10942405D01*
X15095119Y-10942405D02*
X15104643Y-10923357D01*
X15104643Y-10923357D02*
X15123690Y-10913833D01*
X15123690Y-10913833D02*
X15171309Y-10913833D01*
X15171309Y-10913833D02*
X15190357Y-10904310D01*
X15285595Y-10856690D02*
X15285595Y-11056690D01*
X15285595Y-10866214D02*
X15304643Y-10856690D01*
X15304643Y-10856690D02*
X15342738Y-10856690D01*
X15342738Y-10856690D02*
X15361786Y-10866214D01*
X15361786Y-10866214D02*
X15371309Y-10875738D01*
X15371309Y-10875738D02*
X15380833Y-10894786D01*
X15380833Y-10894786D02*
X15380833Y-10951929D01*
X15380833Y-10951929D02*
X15371309Y-10970976D01*
X15371309Y-10970976D02*
X15361786Y-10980500D01*
X15361786Y-10980500D02*
X15342738Y-10990024D01*
X15342738Y-10990024D02*
X15304643Y-10990024D01*
X15304643Y-10990024D02*
X15285595Y-10980500D01*
X15466548Y-10970976D02*
X15476071Y-10980500D01*
X15476071Y-10980500D02*
X15466548Y-10990024D01*
X15466548Y-10990024D02*
X15457024Y-10980500D01*
X15457024Y-10980500D02*
X15466548Y-10970976D01*
X15466548Y-10970976D02*
X15466548Y-10990024D01*
X15466548Y-10866214D02*
X15476071Y-10875738D01*
X15476071Y-10875738D02*
X15466548Y-10885262D01*
X15466548Y-10885262D02*
X15457024Y-10875738D01*
X15457024Y-10875738D02*
X15466548Y-10866214D01*
X15466548Y-10866214D02*
X15466548Y-10885262D01*
M02*
