%TF.GenerationSoftware,KiCad,Pcbnew,7.0.2*%
%TF.CreationDate,2023-07-27T03:17:02-04:00*%
%TF.ProjectId,switchy,73776974-6368-4792-9e6b-696361645f70,1.0*%
%TF.SameCoordinates,Original*%
%TF.FileFunction,Legend,Bot*%
%TF.FilePolarity,Positive*%
%FSLAX46Y46*%
G04 Gerber Fmt 4.6, Leading zero omitted, Abs format (unit mm)*
G04 Created by KiCad (PCBNEW 7.0.2) date 2023-07-27 03:17:02*
%MOMM*%
%LPD*%
G01*
G04 APERTURE LIST*
G04 Aperture macros list*
%AMRoundRect*
0 Rectangle with rounded corners*
0 $1 Rounding radius*
0 $2 $3 $4 $5 $6 $7 $8 $9 X,Y pos of 4 corners*
0 Add a 4 corners polygon primitive as box body*
4,1,4,$2,$3,$4,$5,$6,$7,$8,$9,$2,$3,0*
0 Add four circle primitives for the rounded corners*
1,1,$1+$1,$2,$3*
1,1,$1+$1,$4,$5*
1,1,$1+$1,$6,$7*
1,1,$1+$1,$8,$9*
0 Add four rect primitives between the rounded corners*
20,1,$1+$1,$2,$3,$4,$5,0*
20,1,$1+$1,$4,$5,$6,$7,0*
20,1,$1+$1,$6,$7,$8,$9,0*
20,1,$1+$1,$8,$9,$2,$3,0*%
G04 Aperture macros list end*
%ADD10C,0.150000*%
%ADD11C,1.700000*%
%ADD12R,1.700000X1.700000*%
%ADD13O,1.700000X1.700000*%
%ADD14C,2.203200*%
%ADD15RoundRect,0.101600X-1.750000X-1.125000X1.750000X-1.125000X1.750000X1.125000X-1.750000X1.125000X0*%
G04 APERTURE END LIST*
D10*
X150038094Y-93662619D02*
X150038094Y-92662619D01*
X149514285Y-92662619D02*
X149609523Y-92853095D01*
X143014285Y-94177619D02*
X142823809Y-94177619D01*
X142823809Y-94177619D02*
X142728571Y-94130000D01*
X142728571Y-94130000D02*
X142680952Y-94082380D01*
X142680952Y-94082380D02*
X142585714Y-93939523D01*
X142585714Y-93939523D02*
X142538095Y-93749047D01*
X142538095Y-93749047D02*
X142538095Y-93368095D01*
X142538095Y-93368095D02*
X142585714Y-93272857D01*
X142585714Y-93272857D02*
X142633333Y-93225238D01*
X142633333Y-93225238D02*
X142728571Y-93177619D01*
X142728571Y-93177619D02*
X142919047Y-93177619D01*
X142919047Y-93177619D02*
X143014285Y-93225238D01*
X143014285Y-93225238D02*
X143061904Y-93272857D01*
X143061904Y-93272857D02*
X143109523Y-93368095D01*
X143109523Y-93368095D02*
X143109523Y-93606190D01*
X143109523Y-93606190D02*
X143061904Y-93701428D01*
X143061904Y-93701428D02*
X143014285Y-93749047D01*
X143014285Y-93749047D02*
X142919047Y-93796666D01*
X142919047Y-93796666D02*
X142728571Y-93796666D01*
X142728571Y-93796666D02*
X142633333Y-93749047D01*
X142633333Y-93749047D02*
X142585714Y-93701428D01*
X142585714Y-93701428D02*
X142538095Y-93606190D01*
X142252380Y-93177619D02*
X141919047Y-94177619D01*
X141919047Y-94177619D02*
X141585714Y-93177619D01*
X152771428Y-92877619D02*
X152580952Y-92877619D01*
X152580952Y-92877619D02*
X152485714Y-92925238D01*
X152485714Y-92925238D02*
X152390476Y-93020476D01*
X152390476Y-93020476D02*
X152342857Y-93210952D01*
X152342857Y-93210952D02*
X152342857Y-93544285D01*
X152342857Y-93544285D02*
X152390476Y-93734761D01*
X152390476Y-93734761D02*
X152485714Y-93830000D01*
X152485714Y-93830000D02*
X152580952Y-93877619D01*
X152580952Y-93877619D02*
X152771428Y-93877619D01*
X152771428Y-93877619D02*
X152866666Y-93830000D01*
X152866666Y-93830000D02*
X152961904Y-93734761D01*
X152961904Y-93734761D02*
X153009523Y-93544285D01*
X153009523Y-93544285D02*
X153009523Y-93210952D01*
X153009523Y-93210952D02*
X152961904Y-93020476D01*
X152961904Y-93020476D02*
X152866666Y-92925238D01*
X152866666Y-92925238D02*
X152771428Y-92877619D01*
X151866666Y-92877619D02*
X151961904Y-93068095D01*
X157462619Y-91400000D02*
X157462619Y-91590476D01*
X157462619Y-91590476D02*
X157510238Y-91685714D01*
X157510238Y-91685714D02*
X157605476Y-91780952D01*
X157605476Y-91780952D02*
X157795952Y-91828571D01*
X157795952Y-91828571D02*
X158129285Y-91828571D01*
X158129285Y-91828571D02*
X158319761Y-91780952D01*
X158319761Y-91780952D02*
X158415000Y-91685714D01*
X158415000Y-91685714D02*
X158462619Y-91590476D01*
X158462619Y-91590476D02*
X158462619Y-91400000D01*
X158462619Y-91400000D02*
X158415000Y-91304762D01*
X158415000Y-91304762D02*
X158319761Y-91209524D01*
X158319761Y-91209524D02*
X158129285Y-91161905D01*
X158129285Y-91161905D02*
X157795952Y-91161905D01*
X157795952Y-91161905D02*
X157605476Y-91209524D01*
X157605476Y-91209524D02*
X157510238Y-91304762D01*
X157510238Y-91304762D02*
X157462619Y-91400000D01*
X157462619Y-92257143D02*
X158272142Y-92257143D01*
X158272142Y-92257143D02*
X158367380Y-92304762D01*
X158367380Y-92304762D02*
X158415000Y-92352381D01*
X158415000Y-92352381D02*
X158462619Y-92447619D01*
X158462619Y-92447619D02*
X158462619Y-92638095D01*
X158462619Y-92638095D02*
X158415000Y-92733333D01*
X158415000Y-92733333D02*
X158367380Y-92780952D01*
X158367380Y-92780952D02*
X158272142Y-92828571D01*
X158272142Y-92828571D02*
X157462619Y-92828571D01*
X157462619Y-93161905D02*
X157462619Y-93733333D01*
X158462619Y-93447619D02*
X157462619Y-93447619D01*
X140382380Y-95109523D02*
X140430000Y-95061904D01*
X140430000Y-95061904D02*
X140477619Y-94919047D01*
X140477619Y-94919047D02*
X140477619Y-94823809D01*
X140477619Y-94823809D02*
X140430000Y-94680952D01*
X140430000Y-94680952D02*
X140334761Y-94585714D01*
X140334761Y-94585714D02*
X140239523Y-94538095D01*
X140239523Y-94538095D02*
X140049047Y-94490476D01*
X140049047Y-94490476D02*
X139906190Y-94490476D01*
X139906190Y-94490476D02*
X139715714Y-94538095D01*
X139715714Y-94538095D02*
X139620476Y-94585714D01*
X139620476Y-94585714D02*
X139525238Y-94680952D01*
X139525238Y-94680952D02*
X139477619Y-94823809D01*
X139477619Y-94823809D02*
X139477619Y-94919047D01*
X139477619Y-94919047D02*
X139525238Y-95061904D01*
X139525238Y-95061904D02*
X139572857Y-95109523D01*
X140477619Y-96014285D02*
X140477619Y-95538095D01*
X140477619Y-95538095D02*
X139477619Y-95538095D01*
X140477619Y-96919047D02*
X140001428Y-96585714D01*
X140477619Y-96347619D02*
X139477619Y-96347619D01*
X139477619Y-96347619D02*
X139477619Y-96728571D01*
X139477619Y-96728571D02*
X139525238Y-96823809D01*
X139525238Y-96823809D02*
X139572857Y-96871428D01*
X139572857Y-96871428D02*
X139668095Y-96919047D01*
X139668095Y-96919047D02*
X139810952Y-96919047D01*
X139810952Y-96919047D02*
X139906190Y-96871428D01*
X139906190Y-96871428D02*
X139953809Y-96823809D01*
X139953809Y-96823809D02*
X140001428Y-96728571D01*
X140001428Y-96728571D02*
X140001428Y-96347619D01*
X154999999Y-93662619D02*
X154999999Y-92662619D01*
X147138095Y-92710238D02*
X147233333Y-92662619D01*
X147233333Y-92662619D02*
X147376190Y-92662619D01*
X147376190Y-92662619D02*
X147519047Y-92710238D01*
X147519047Y-92710238D02*
X147614285Y-92805476D01*
X147614285Y-92805476D02*
X147661904Y-92900714D01*
X147661904Y-92900714D02*
X147709523Y-93091190D01*
X147709523Y-93091190D02*
X147709523Y-93234047D01*
X147709523Y-93234047D02*
X147661904Y-93424523D01*
X147661904Y-93424523D02*
X147614285Y-93519761D01*
X147614285Y-93519761D02*
X147519047Y-93615000D01*
X147519047Y-93615000D02*
X147376190Y-93662619D01*
X147376190Y-93662619D02*
X147280952Y-93662619D01*
X147280952Y-93662619D02*
X147138095Y-93615000D01*
X147138095Y-93615000D02*
X147090476Y-93567380D01*
X147090476Y-93567380D02*
X147090476Y-93234047D01*
X147090476Y-93234047D02*
X147280952Y-93234047D01*
%LPC*%
D11*
X140000000Y-102750000D03*
D12*
X140000000Y-105290000D03*
X143500000Y-92000000D03*
D13*
X146040000Y-92000000D03*
X148580000Y-92000000D03*
X151120000Y-92000000D03*
X153660000Y-92000000D03*
X156200000Y-92000000D03*
D14*
X140000000Y-99560000D03*
X140000000Y-91940000D03*
D15*
X145200000Y-95300000D03*
X145200000Y-100000000D03*
X145200000Y-104700000D03*
X150000000Y-95300000D03*
X150000000Y-100000000D03*
X150000000Y-104700000D03*
X154800000Y-95300000D03*
X154800000Y-100000000D03*
X154800000Y-104700000D03*
%LPD*%
M02*
